<svg id="visual" viewBox="0 0 900 600" width="900" height="600" xmlns="http://www.w3.org/2000/svg" xmlns:xlink="http://www.w3.org/1999/xlink" version="1.1"><rect width="900" height="600" fill="#210505"></rect><g><g transform="translate(856 200)"><path d="M67.3 -84.8C85.6 -64.9 97.5 -42.1 105 -16.1C112.5 10 115.6 39.3 102.6 56.7C89.5 74.2 60.3 79.8 33.2 88.4C6.1 97.1 -18.9 108.8 -42.3 105.1C-65.8 101.4 -87.8 82.4 -102.6 58.4C-117.4 34.5 -125 5.5 -121.7 -22.9C-118.4 -51.3 -104.1 -79.2 -82 -98.4C-59.9 -117.6 -29.9 -128.2 -2.7 -125C24.5 -121.8 49.1 -104.8 67.3 -84.8Z" fill="#a31235"></path></g><g transform="translate(502 321)"><path d="M90.7 -108.5C113.4 -89 125 -56.5 125.1 -26.4C125.2 3.7 113.9 31.5 98.5 55.6C83.1 79.8 63.6 100.4 41.4 104.5C19.2 108.7 -5.7 96.3 -27.1 84.2C-48.6 72.2 -66.6 60.5 -81.1 43.1C-95.6 25.7 -106.6 2.5 -104.8 -20.3C-103 -43.1 -88.4 -65.5 -68.8 -85.6C-49.2 -105.7 -24.6 -123.5 4.7 -129.1C34 -134.7 67.9 -128 90.7 -108.5Z" fill="#a31235"></path></g><g transform="translate(174 530)"><path d="M32.6 -41.5C43.9 -29.3 56 -20.7 59.2 -9.4C62.4 1.8 56.7 15.6 48.5 26.4C40.4 37.1 29.8 44.8 18.4 47.9C7 50.9 -5.2 49.3 -17.7 45.9C-30.3 42.6 -43.2 37.5 -54.8 27C-66.3 16.5 -76.4 0.6 -72.8 -11.7C-69.3 -24 -52.1 -32.8 -37.7 -44.4C-23.2 -56.1 -11.6 -70.6 -0.5 -70C10.6 -69.4 21.2 -53.7 32.6 -41.5Z" fill="#a31235"></path></g><g transform="translate(764 597)"><path d="M28.9 -31.5C38.6 -26.3 48.5 -18.3 50 -8.9C51.6 0.5 45 11.3 39.8 25.4C34.5 39.4 30.7 56.7 20 64.9C9.3 73 -8.3 72 -23 65.6C-37.7 59.2 -49.6 47.3 -54.9 33.8C-60.2 20.3 -58.9 5.1 -55.1 -8.5C-51.2 -22 -44.8 -33.9 -35.2 -39C-25.6 -44.2 -12.8 -42.6 -1.6 -40.8C9.6 -38.9 19.2 -36.6 28.9 -31.5Z" fill="#a31235"></path></g><g transform="translate(205 17)"><path d="M67.2 -75.2C86.1 -64.1 99.9 -42.1 108.8 -15.7C117.6 10.8 121.5 41.6 108 60C94.6 78.5 63.8 84.5 33.8 97.4C3.8 110.3 -25.3 130 -49.2 125.5C-73 121 -91.6 92.3 -96.5 64.8C-101.4 37.4 -92.7 11.3 -85.3 -12.3C-77.9 -36 -71.8 -57.2 -57.8 -69.1C-43.8 -81.1 -21.9 -83.9 1.1 -85.2C24.1 -86.5 48.2 -86.3 67.2 -75.2Z" fill="#a31235"></path></g></g></svg>