<svg xmlns="http://www.w3.org/2000/svg" xmlns:xlink="http://www.w3.org/1999/xlink" id="visual" viewBox="0 0 900 400" height="100%" width="100%" version="1.1"><rect x="0" y="0" width="900" height="400" fill="#424242"/><path d="M0 146L25 145.3C50 144.7 100 143.3 150 145C200 146.7 250 151.3 300 171.5C350 191.7 400 227.3 450 220.8C500 214.3 550 165.7 600 142.2C650 118.7 700 120.3 750 135C800 149.7 850 177.3 875 191.2L900 205L900 401L875 401C850 401 800 401 750 401C700 401 650 401 600 401C550 401 500 401 450 401C400 401 350 401 300 401C250 401 200 401 150 401C100 401 50 401 25 401L0 401Z" fill="#202024" stroke-linecap="round" stroke-linejoin="miter"/></svg>