<?xml version="1.0" encoding="iso-8859-1"?>
<!-- Generator: Adobe Illustrator 16.0.0, SVG Export Plug-In . SVG Version: 6.00 Build 0)  -->
<!DOCTYPE svg PUBLIC "-//W3C//DTD SVG 1.1//EN" "http://www.w3.org/Graphics/SVG/1.1/DTD/svg11.dtd">
<svg version="1.1" id="Capa_1" xmlns="http://www.w3.org/2000/svg" xmlns:xlink="http://www.w3.org/1999/xlink" x="0px" y="0px"
	 width="974.699px" height="974.699px" viewBox="0 0 974.699 974.699" style="enable-background:new 0 0 974.699 974.699;"
	 xml:space="preserve">
<g>
	<path d="M731.1,107.1C731.1,47.9,683.1,0,623.999,0H350.8c-59.2,0-107.101,48-107.101,107.1v37h487.4V107.1L731.1,107.1z"/>
	<path d="M243.699,514.4c0,59.199,48,107.1,107.101,107.1h273.199c59.2,0,107.101-48,107.101-107.1V224.2h-487.4V514.4z"/>
	<path d="M307.499,810.1h119.9v104.6c0,33.102,26.9,60,60,60s60-26.898,60-60V810.1h119.9c68.5,0,132.8-27.299,181.1-76.9
		C896.3,684,922.6,618.801,922.6,549.5c0-33.1-26.9-60-60-60c-33.101,0-60,26.9-60,60c0,77.5-60.7,140.6-135.4,140.6h-179.8h-179.9
		c-74.6,0-135.399-63.1-135.399-140.6c0-33.1-26.9-60-60-60c-33.1,0-60,26.9-60,60c0,69.301,26.4,134.5,74.2,183.699
		C174.699,782.801,239,810.1,307.499,810.1z"/>
</g>
<g>
</g>
<g>
</g>
<g>
</g>
<g>
</g>
<g>
</g>
<g>
</g>
<g>
</g>
<g>
</g>
<g>
</g>
<g>
</g>
<g>
</g>
<g>
</g>
<g>
</g>
<g>
</g>
<g>
</g>
</svg>
