<?xml version="1.0" encoding="iso-8859-1"?>
<!-- Generator: Adobe Illustrator 19.0.0, SVG Export Plug-In . SVG Version: 6.00 Build 0)  -->
<svg xmlns="http://www.w3.org/2000/svg" xmlns:xlink="http://www.w3.org/1999/xlink" version="1.1" id="Layer_1" x="0px" y="0px" viewBox="0 0 490 490" style="enable-background:new 0 0 490 490;" xml:space="preserve" width="512px" height="512px">
<g>
	<g>
		<g>
			<path d="M480,15H10C4.477,15,0,19.477,0,25v40c0,5.523,4.477,10,10,10h10v290c0,5.523,4.478,10,10,10h205v80h-20v20h60v-20h-20     v-80h205c5.522,0,10-4.477,10-10V75h10c5.522,0,10-4.477,10-10V25C490,19.477,485.522,15,480,15z M450,355H40V75h410V355z      M470,55h-10H30H20V35h450V55z" fill="#ffb300"/>
			<rect x="70" y="115" width="60" height="20" fill="#ffb300"/>
			<rect x="70" y="155" width="170" height="20" fill="#ffb300"/>
			<rect x="70" y="205" width="350" height="20" fill="#ffb300"/>
			<rect x="70" y="245" width="350" height="20" fill="#ffb300"/>
			<rect x="70" y="285" width="260" height="20" fill="#ffb300"/>
			<rect x="380" y="285" width="40" height="20" fill="#ffb300"/>
			<rect x="395" y="100" width="30" height="20" fill="#ffb300"/>
			<rect x="350" y="100" width="30" height="20" fill="#ffb300"/>
			<rect x="395" y="130" width="30" height="20" fill="#ffb300"/>
		</g>
	</g>
</g>
<g>
</g>
<g>
</g>
<g>
</g>
<g>
</g>
<g>
</g>
<g>
</g>
<g>
</g>
<g>
</g>
<g>
</g>
<g>
</g>
<g>
</g>
<g>
</g>
<g>
</g>
<g>
</g>
<g>
</g>
</svg>
